<svg xmlns="http://www.w3.org/2000/svg" viewBox="0 0 1024 1024" width="1024" height="1024">
  <!-- Red status dot -->
  <circle cx="700" cy="908" r="10" fill="#FF3B30" stroke="none" />
  <!-- Clean, system-font 'SFNS.ttf' vectorized Layer -->
  <path fill-rule="evenodd" d="M 814 892 L 814 923 L 833 923 L 833 921 L 818 921 L 817 920 L 817 909 L 818 908 L 832 908 L 832 906 L 818 906 L 817 905 L 817 895 L 818 894 L 833 894 L 833 892 Z M 783 892 L 784 893 L 784 895 L 785 896 L 785 898 L 786 899 L 786 900 L 787 901 L 787 903 L 788 904 L 788 906 L 789 907 L 789 908 L 790 909 L 790 911 L 791 912 L 791 914 L 792 915 L 792 917 L 793 918 L 793 919 L 794 920 L 794 922 L 795 923 L 798 923 L 798 922 L 799 921 L 799 919 L 800 918 L 800 917 L 801 916 L 801 914 L 802 913 L 802 911 L 803 910 L 803 909 L 804 908 L 804 906 L 805 905 L 805 903 L 806 902 L 806 901 L 807 900 L 807 898 L 808 897 L 808 895 L 809 894 L 809 892 L 806 892 L 806 894 L 805 895 L 805 897 L 804 898 L 804 899 L 803 900 L 803 902 L 802 903 L 802 905 L 801 906 L 801 908 L 800 909 L 800 911 L 799 912 L 799 914 L 798 915 L 798 916 L 796 918 L 795 917 L 795 915 L 794 914 L 794 913 L 793 912 L 793 910 L 792 909 L 792 907 L 791 906 L 791 904 L 790 903 L 790 901 L 789 900 L 789 898 L 788 897 L 788 896 L 787 895 L 787 893 L 786 892 Z M 751 892 L 751 922 L 752 923 L 770 923 L 770 920 L 755 920 L 754 919 L 754 892 Z M 775 892 L 775 923 L 778 923 L 778 892 Z" fill="#FFD2D0" stroke="#FF3B30" stroke-width="2" stroke-linecap="round" stroke-linejoin="round" />
</svg>
