<svg xmlns="http://www.w3.org/2000/svg" viewBox="0 0 1024 1024" width="1024" height="1024">
  <!-- Clean, system-font 'SFNS.ttf' vectorized Layer 24 (scaled to target size) -->
  <path fill-rule="evenodd" d="M 714 399 L 711 403 L 711 404 L 709 406 L 709 407 L 707 409 L 707 410 L 705 412 L 704 415 L 702 417 L 702 418 L 696 426 L 695 429 L 693 431 L 693 432 L 691 434 L 691 435 L 685 443 L 684 446 L 682 448 L 682 449 L 676 457 L 675 460 L 673 462 L 673 463 L 671 465 L 671 466 L 665 474 L 664 477 L 662 479 L 662 480 L 660 482 L 660 483 L 654 491 L 653 494 L 651 496 L 651 497 L 645 505 L 644 508 L 642 510 L 642 511 L 636 519 L 635 522 L 633 524 L 633 525 L 627 533 L 626 536 L 624 538 L 624 539 L 618 547 L 617 550 L 615 552 L 615 553 L 613 555 L 613 556 L 607 564 L 606 567 L 604 569 L 604 570 L 602 572 L 602 573 L 596 581 L 595 584 L 593 586 L 593 587 L 591 589 L 591 590 L 585 598 L 584 601 L 582 603 L 582 604 L 580 606 L 580 607 L 574 615 L 573 618 L 571 620 L 571 621 L 569 623 L 569 624 L 563 632 L 562 635 L 560 637 L 560 638 L 558 640 L 558 641 L 552 649 L 551 652 L 549 654 L 549 655 L 543 663 L 542 666 L 540 668 L 540 669 L 534 677 L 533 680 L 531 682 L 531 683 L 525 691 L 525 692 L 523 695 L 523 742 L 524 743 L 740 743 L 741 744 L 741 832 L 742 833 L 793 833 L 793 744 L 794 743 L 854 743 L 855 742 L 855 696 L 794 696 L 793 695 L 793 399 Z M 256 409 L 254 411 L 247 414 L 235 422 L 223 433 L 222 433 L 211 445 L 203 456 L 192 477 L 192 479 L 188 489 L 186 502 L 185 503 L 184 524 L 236 524 L 236 511 L 237 510 L 237 506 L 238 505 L 238 502 L 239 501 L 241 493 L 251 476 L 263 463 L 280 451 L 299 443 L 302 443 L 307 441 L 311 441 L 312 440 L 319 440 L 320 439 L 340 439 L 341 440 L 353 441 L 357 443 L 363 444 L 368 447 L 370 447 L 384 456 L 397 469 L 407 486 L 407 488 L 409 492 L 409 495 L 410 496 L 410 499 L 411 500 L 411 506 L 412 507 L 412 526 L 411 527 L 411 533 L 410 534 L 410 538 L 409 539 L 407 549 L 399 566 L 389 581 L 373 601 L 356 619 L 356 620 L 340 636 L 340 637 L 315 662 L 315 663 L 291 687 L 291 688 L 267 712 L 267 713 L 242 738 L 242 739 L 186 797 L 186 833 L 472 833 L 472 786 L 261 786 L 260 785 L 260 784 L 289 755 L 289 754 L 387 654 L 387 653 L 413 625 L 433 600 L 448 577 L 455 563 L 455 561 L 457 558 L 457 556 L 461 546 L 461 543 L 463 538 L 463 533 L 464 532 L 464 525 L 465 524 L 465 502 L 464 501 L 464 494 L 463 493 L 462 484 L 460 480 L 459 474 L 450 455 L 442 443 L 437 438 L 437 437 L 420 421 L 405 411 L 391 404 L 389 404 L 386 402 L 384 402 L 374 398 L 371 398 L 366 396 L 362 396 L 361 395 L 357 395 L 356 394 L 349 394 L 348 393 L 311 393 L 310 394 L 297 395 L 296 396 L 281 399 Z M 740 445 L 741 446 L 741 695 L 740 696 L 577 696 L 576 695 L 576 694 L 578 692 L 578 691 L 579 690 L 579 689 L 581 687 L 581 686 L 583 684 L 583 683 L 585 681 L 585 680 L 587 678 L 587 677 L 589 675 L 589 674 L 591 672 L 591 671 L 592 670 L 592 669 L 594 667 L 594 666 L 596 664 L 596 663 L 598 661 L 598 660 L 600 658 L 600 657 L 602 655 L 602 654 L 604 652 L 604 651 L 606 649 L 606 648 L 608 646 L 608 645 L 609 644 L 609 643 L 611 641 L 611 640 L 613 638 L 613 637 L 615 635 L 615 634 L 617 632 L 617 631 L 619 629 L 619 628 L 621 626 L 621 625 L 623 623 L 623 622 L 625 620 L 625 619 L 626 618 L 626 617 L 628 615 L 628 614 L 630 612 L 630 611 L 632 609 L 632 608 L 634 606 L 634 605 L 636 603 L 636 602 L 638 600 L 638 599 L 640 597 L 640 596 L 642 594 L 642 593 L 644 591 L 644 590 L 645 589 L 645 588 L 647 586 L 647 585 L 649 583 L 649 582 L 651 580 L 651 579 L 653 577 L 653 576 L 655 574 L 655 573 L 657 571 L 657 570 L 659 568 L 659 567 L 661 565 L 661 564 L 663 562 L 663 561 L 664 560 L 664 559 L 666 557 L 666 556 L 668 554 L 668 553 L 670 551 L 670 550 L 672 548 L 672 547 L 674 545 L 674 544 L 676 542 L 676 541 L 678 539 L 678 538 L 680 536 L 680 535 L 681 534 L 681 533 L 683 531 L 683 530 L 685 528 L 685 527 L 687 525 L 687 524 L 689 522 L 689 521 L 691 519 L 691 518 L 693 516 L 693 515 L 695 513 L 695 512 L 697 510 L 697 509 L 698 508 L 698 507 L 700 505 L 700 504 L 702 502 L 702 501 L 704 499 L 704 498 L 706 496 L 706 495 L 708 493 L 708 492 L 710 490 L 710 489 L 712 487 L 712 486 L 714 484 L 714 483 L 715 482 L 715 481 L 717 479 L 717 478 L 719 476 L 719 475 L 721 473 L 721 472 L 723 470 L 723 469 L 725 467 L 725 466 L 727 464 L 727 463 L 729 461 L 729 460 L 730 459 L 730 458 L 732 456 L 732 455 L 734 453 L 734 452 L 736 450 L 736 449 L 738 447 L 738 446 L 739 445 Z" fill="#E6F5FF" stroke="#30B0FF" stroke-width="4" stroke-linecap="round" stroke-linejoin="round" />
</svg>
