<svg xmlns="http://www.w3.org/2000/svg" viewBox="0 0 1024 1024" width="1024" height="1024">
  
  <!-- Clean, system-font 'SFNS.ttf' vectorized Layer -->
  <path fill-rule="evenodd" d="M 714 399 L 711 403 L 711 404 L 709 406 L 709 407 L 707 409 L 706 412 L 704 414 L 704 415 L 698 423 L 697 426 L 695 428 L 695 429 L 689 437 L 688 440 L 686 442 L 686 443 L 684 445 L 684 446 L 678 454 L 677 457 L 675 459 L 675 460 L 673 462 L 673 463 L 667 471 L 666 474 L 664 476 L 664 477 L 658 485 L 657 488 L 655 490 L 655 491 L 649 499 L 648 502 L 646 504 L 646 505 L 640 513 L 639 516 L 637 518 L 637 519 L 631 527 L 630 530 L 628 532 L 628 533 L 622 541 L 621 544 L 619 546 L 619 547 L 617 549 L 617 550 L 611 558 L 610 561 L 608 563 L 608 564 L 606 566 L 606 567 L 600 575 L 599 578 L 597 580 L 597 581 L 591 589 L 590 592 L 588 594 L 588 595 L 586 597 L 586 598 L 580 606 L 579 609 L 577 611 L 577 612 L 575 614 L 575 615 L 569 623 L 568 626 L 566 628 L 566 629 L 564 631 L 564 632 L 558 640 L 557 643 L 555 645 L 555 646 L 553 648 L 553 649 L 547 657 L 546 660 L 544 662 L 544 663 L 538 671 L 537 674 L 535 676 L 535 677 L 529 685 L 528 688 L 524 693 L 524 742 L 740 742 L 741 743 L 741 832 L 793 832 L 793 743 L 794 742 L 854 742 L 854 695 L 794 695 L 793 694 L 793 399 Z M 253 411 L 251 413 L 240 419 L 226 430 L 211 446 L 202 459 L 195 472 L 195 474 L 193 477 L 193 479 L 191 482 L 191 485 L 189 489 L 189 492 L 187 497 L 187 502 L 186 503 L 186 510 L 185 511 L 185 524 L 236 524 L 237 523 L 237 510 L 238 509 L 238 505 L 239 504 L 239 501 L 240 500 L 241 495 L 244 490 L 244 488 L 253 474 L 268 459 L 280 451 L 290 446 L 292 446 L 295 444 L 301 443 L 305 441 L 315 440 L 316 439 L 345 439 L 346 440 L 351 440 L 352 441 L 359 442 L 375 449 L 384 455 L 398 469 L 406 482 L 406 484 L 408 487 L 408 489 L 410 493 L 410 496 L 411 497 L 411 501 L 412 502 L 412 529 L 411 530 L 411 535 L 410 536 L 410 540 L 408 544 L 408 547 L 403 557 L 403 559 L 401 561 L 399 566 L 392 577 L 373 601 L 357 618 L 357 619 L 341 635 L 341 636 L 188 795 L 188 832 L 473 832 L 473 785 L 262 785 L 261 784 L 261 783 L 291 753 L 291 752 L 388 653 L 388 652 L 414 624 L 436 596 L 450 574 L 457 559 L 458 554 L 460 551 L 460 548 L 462 544 L 463 536 L 464 535 L 464 529 L 465 528 L 465 497 L 464 496 L 464 491 L 463 490 L 462 482 L 461 481 L 458 470 L 455 465 L 455 463 L 453 459 L 441 441 L 430 429 L 429 429 L 418 419 L 404 410 L 387 402 L 385 402 L 375 398 L 368 397 L 367 396 L 357 395 L 356 394 L 350 394 L 349 393 L 312 393 L 311 394 L 304 394 L 303 395 L 298 395 L 297 396 L 293 396 L 292 397 L 285 398 L 284 399 L 270 403 Z M 740 445 L 741 446 L 741 694 L 740 695 L 577 695 L 576 694 L 578 692 L 578 691 L 580 689 L 580 688 L 581 687 L 581 686 L 583 684 L 583 683 L 585 681 L 585 680 L 587 678 L 587 677 L 589 675 L 589 674 L 591 672 L 591 671 L 593 669 L 593 668 L 594 667 L 594 666 L 596 664 L 596 663 L 598 661 L 598 660 L 600 658 L 600 657 L 602 655 L 602 654 L 604 652 L 604 651 L 606 649 L 606 648 L 608 646 L 608 645 L 609 644 L 609 643 L 611 641 L 611 640 L 613 638 L 613 637 L 615 635 L 615 634 L 617 632 L 617 631 L 619 629 L 619 628 L 621 626 L 621 625 L 623 623 L 623 622 L 625 620 L 625 619 L 627 617 L 627 616 L 628 615 L 628 614 L 630 612 L 630 611 L 632 609 L 632 608 L 634 606 L 634 605 L 636 603 L 636 602 L 638 600 L 638 599 L 640 597 L 640 596 L 642 594 L 642 593 L 644 591 L 644 590 L 646 588 L 646 587 L 647 586 L 647 585 L 649 583 L 649 582 L 651 580 L 651 579 L 653 577 L 653 576 L 655 574 L 655 573 L 657 571 L 657 570 L 659 568 L 659 567 L 661 565 L 661 564 L 663 562 L 663 561 L 664 560 L 664 559 L 666 557 L 666 556 L 668 554 L 668 553 L 670 551 L 670 550 L 672 548 L 672 547 L 674 545 L 674 544 L 676 542 L 676 541 L 678 539 L 678 538 L 680 536 L 680 535 L 681 534 L 681 533 L 683 531 L 683 530 L 685 528 L 685 527 L 687 525 L 687 524 L 689 522 L 689 521 L 691 519 L 691 518 L 693 516 L 693 515 L 695 513 L 695 512 L 697 510 L 697 509 L 698 508 L 698 507 L 700 505 L 700 504 L 702 502 L 702 501 L 704 499 L 704 498 L 706 496 L 706 495 L 708 493 L 708 492 L 710 490 L 710 489 L 712 487 L 712 486 L 713 485 L 713 484 L 715 482 L 715 481 L 717 479 L 717 478 L 719 476 L 719 475 L 721 473 L 721 472 L 723 470 L 723 469 L 725 467 L 725 466 L 727 464 L 727 463 L 728 462 L 728 461 L 730 459 L 730 458 L 732 456 L 732 455 L 734 453 L 734 452 L 736 450 L 736 449 L 738 447 L 738 446 L 739 445 Z" fill="#E6F5FF" stroke="#30B0FF" stroke-width="4" stroke-linecap="round" stroke-linejoin="round" />
</svg>
